<svg xmlns="http://www.w3.org/2000/svg" viewBox="0 0 116.33 66.01"><defs><style>.cls-1{fill:#fff;stroke:#fff;stroke-miterlimit:10;stroke-width:1.19px;}</style></defs><title>icon-res_1</title><g id="Layer_2" data-name="Layer 2"><g id="Layer_1-2" data-name="Layer 1"><path class="cls-1" d="M115.5,65.42H86.86a.23.23,0,0,1-.23-.23V60.34H67.43a.23.23,0,0,1-.24-.23v-4.5H40.41a.23.23,0,0,1-.24-.23V31.7L22.45,37.88v17.5a.23.23,0,0,1-.23.23H17.13a.23.23,0,0,1-.23-.23V39.92l-12,4.35V55.48a.23.23,0,0,1-.23.24H1.25v4.1H40.41a.23.23,0,0,1,.23.23v5.14a.23.23,0,0,1-.23.23H.83a.24.24,0,1,1,0-.47H40.17V60.29H1a.23.23,0,0,1-.23-.24V55.48A.23.23,0,0,1,1,55.25h3.4V44.1a.25.25,0,0,1,.16-.22l12.47-4.52a.26.26,0,0,1,.21,0,.22.22,0,0,1,.1.19V55.14H22V37.71a.23.23,0,0,1,.15-.22l18.19-6.34a.23.23,0,0,1,.31.22V55.14H67.19V45.53H54.54a.23.23,0,0,1-.23-.23v-19a.23.23,0,0,1,.27-.23l14.34,2.34a.24.24,0,0,1,.2.23V45.06H86.63V32.93a.23.23,0,0,1,.08-.18.29.29,0,0,1,.2,0l8.94,1.87a.25.25,0,0,1,.18.23V45.3a.23.23,0,0,1-.23.23H87.09v9.61h19.49V37.6L89.82,20.84l-9.14,8.73a.2.2,0,0,1-.17.06.21.21,0,0,1-.16-.08L61.75,8.85,41.09,27.65,41,27.7,3.34,41.53a.24.24,0,0,1-.25-.39L15.77,27.89l0,0L61.64.63a.24.24,0,0,1,.3,0L81.47,22.73l10.42-10a.25.25,0,0,1,.33,0L114,35a.28.28,0,0,1,.07.17.25.25,0,0,1-.08.16l-2.38,2.28V55h2.88a.24.24,0,0,1,.24.23v4.84a.23.23,0,0,1-.24.23H87.09V65H115.5a.24.24,0,0,1,0,.47ZM87.15,59.93h27.22V55.56h-2.89a.23.23,0,0,1-.23-.24V37.51a.2.2,0,0,1,.07-.16l2.29-2.2-21.49-22-10.46,10a.21.21,0,0,1-.17.07.3.3,0,0,1-.17-.08L61.72,1.07,16,28.24,4.11,40.72,40.76,27.27l20.84-19a.28.28,0,0,1,.17-.07.25.25,0,0,1,.17.08L80.58,29.06l9.14-8.74a.24.24,0,0,1,.33,0l17,17a.24.24,0,0,1,.07.16V55.43a.23.23,0,0,1-.24.23H87.15Zm-19.47,0h19V55.66h-19Zm0-4.74h19V45.56H68.9a.23.23,0,0,1-.24-.23V28.81l-13.9-2.27V45.09H67.44a.24.24,0,0,1,.24.24Zm19.47-10.1h8.49V35l-8.49-1.78Z"/></g></g></svg>