<svg xmlns="http://www.w3.org/2000/svg" viewBox="0 0 100.42 70.44"><defs><style>.cls-1{fill:#fff;stroke:#fff;stroke-miterlimit:10;stroke-width:1.06px;}</style></defs><title>icon-comm_1</title><g id="Layer_2" data-name="Layer 2"><g id="Layer_1-2" data-name="Layer 1"><path class="cls-1" d="M96.86,69.91H4.09L.55,32.15,10.8,21.8,25.46,24l-.73-4.44L44.87.62l35.2,14.94-1.3,21,21.07,5.86Zm-92-.8H96.15L99,43,78.72,37.38,78,48.47l-5.79-.61-.57-13.27L78,36.35l1.25-20.27L45,1.56,25.59,19.8l.7,4.27,9.08,1.34V57.18H30.92L25.6,24.78,11.08,22.64l-9.7,9.8ZM31.6,56.38h3V26.1l-8.15-1.2ZM73,47.14l4.29.45.64-10.43-5.42-1.51Z"/><path class="cls-1" d="M45.4.69h0a.4.4,0,0,1,.4.4V69.52a.39.39,0,0,1-.39.39h0a.4.4,0,0,1-.4-.4V1.09a.4.4,0,0,1,.4-.4Z" transform="translate(-0.46 0.6) rotate(-0.75)"/><path class="cls-1" d="M11.33,69.91a.41.41,0,0,1-.4-.4l-.39-47.29a.39.39,0,0,1,.39-.4h0a.41.41,0,0,1,.4.4l.39,47.29a.39.39,0,0,1-.39.4Z"/></g></g></svg>