<?xml version="1.0" encoding="UTF-8"?>
<svg width="170px" height="46px" viewBox="0 0 170 46" version="1.1" xmlns="http://www.w3.org/2000/svg" xmlns:xlink="http://www.w3.org/1999/xlink">
    <!-- Generator: Sketch 61 (89581) - https://sketch.com -->
    <title>Logo</title>
    <desc>Created with Sketch.</desc>
    <g id="Design" stroke="none" stroke-width="1" fill="none" fill-rule="evenodd">
        <g id="Style-guide" transform="translate(-175.000000, -480.000000)">
            <g id="Logo" transform="translate(175.000000, 480.000000)">
                <g id="logo" transform="translate(0.000000, 3.000000)">
                    <polygon id="Fill-1" fill="#5E5E5E" points="1.53333333 9.26666667 3.37707317 9.26666667 12.65 26.8764048 21.9224104 9.26666667 23.7666667 9.26666667 23.7666667 28.4333333 22.5375068 28.4333333 22.5375068 10.984943 22.4837956 10.984943 13.2645799 28.4333333 12.0354201 28.4333333 2.81568796 10.984943 2.76300968 10.984943 2.76300968 28.4333333 1.53333333 28.4333333"></polygon>
                    <polygon id="Fill-3" fill="#5E5E5E" points="26.8333333 9.26666667 28.3642551 9.26666667 42.4333293 26.7155758 42.4863836 26.7155758 42.4863836 9.26666667 43.7 9.26666667 43.7 28.4333333 42.1690782 28.4333333 28.1005142 10.984943 28.04797 10.984943 28.04797 28.4333333 26.8333333 28.4333333"></polygon>
                    <path d="M65.9333333,21.5310294 C65.5137585,25.1648956 62.3411035,29.2 56.7300497,29.2 C51.0404523,29.2 46.7666667,25.5392814 46.7666667,19.2330751 C46.7666667,14.6108305 49.8602713,9.26666667 56.7300497,9.26666667 C61.2399729,9.26666667 64.6751154,11.4308748 65.6186522,15.6792501 L64.4126278,15.6792501 C63.5207778,12.0190479 60.2432292,10.3356027 56.7300497,10.3356027 C51.3814835,10.3356027 47.9731978,14.4238958 47.9731978,19.2330751 C47.9731978,24.0159184 50.9882588,28.1305476 56.7300497,28.1305476 C60.8730982,28.1305476 64.019403,25.6730275 64.7273089,21.5310294 L65.9333333,21.5310294 Z" id="Fill-5" fill="#5E5E5E"></path>
                    <polygon id="Fill-7" fill="#E20F18" points="70.7695031 18.9968857 65.9333333 18.9968857 65.9333333 17.9364476 70.7695031 17.9364476 70.7695031 13.1 71.8304969 13.1 71.8304969 17.9364476 76.6666667 17.9364476 76.6666667 18.9968857 71.8304969 18.9968857 71.8304969 23.8333333 70.7695031 23.8333333"></polygon>
                    <path d="M78.6458622,22.4665613 C78.6723433,26.0204784 80.8061089,28.1310363 85.8655269,28.1310363 C90.476294,28.1310363 92.1629364,26.1273748 92.1629364,23.8825509 C92.1629364,21.7451399 91.1617471,20.7830725 87.2089335,19.9547547 L83.7052802,19.2064801 C79.5940893,18.324456 78.0133713,17.0959223 78.0133713,14.2097202 C78.0133713,11.3508877 80.4638916,9.26666667 85.1276209,9.26666667 C89.8707934,9.26666667 92.8743613,11.0301986 93.0062576,15.0917444 L91.794238,15.0917444 C91.6363699,12.9006269 90.423841,10.3356304 85.4698382,10.3356304 C80.885043,10.3356304 79.383259,12.045456 79.383259,14.2365734 C79.383259,16.2676045 80.2530613,17.2823454 83.8366672,18.0042832 L87.7100374,18.7788946 C91.4779925,19.5271693 93.5333333,20.7562193 93.5333333,23.8025078 C93.5333333,26.3938411 91.8472002,29.2 85.9709421,29.2 C79.8049196,29.2 77.4333333,26.5007375 77.4333333,22.4665613 L78.6458622,22.4665613 Z" id="Fill-9" fill="#5E5E5E"></path>
                    <path d="M105.8,28.1310363 C111.453707,28.1310363 114.556537,23.8025078 114.556537,19.2333333 C114.556537,14.6641589 111.453707,10.3356304 105.8,10.3356304 C100.145784,10.3356304 97.0429543,14.6641589 97.0429543,19.2333333 C97.0429543,23.8025078 100.145784,28.1310363 105.8,28.1310363 M105.8,9.26666667 C113.426203,9.26666667 115.766667,15.4924767 115.766667,19.2333333 C115.766667,22.97419 113.426203,29.2 105.8,29.2 C98.1732891,29.2 95.8333333,22.97419 95.8333333,19.2333333 C95.8333333,15.4924767 98.1732891,9.26666667 105.8,9.26666667" id="Fill-11" fill="#5E5E5E"></path>
                    <polygon id="Fill-13" fill="#5E5E5E" points="118.466667 9.26666667 119.997588 9.26666667 134.066663 26.7155758 134.119717 26.7155758 134.119717 9.26666667 135.333333 9.26666667 135.333333 28.4333333 133.802412 28.4333333 119.733337 10.984943 119.680793 10.984943 119.680793 28.4333333 118.466667 28.4333333"></polygon>
                    <path d="M138.445391,22.4665613 C138.471873,26.0204784 140.606216,28.1310363 145.665794,28.1310363 C150.276707,28.1310363 151.963402,26.1273748 151.963402,23.8825509 C151.963402,21.7451399 150.961672,20.7830725 147.009243,19.9547547 L143.504969,19.2064801 C139.393648,18.324456 137.81288,17.0959223 137.81288,14.2097202 C137.81288,11.3508877 140.263478,9.26666667 144.927864,9.26666667 C149.670678,9.26666667 152.67434,11.0301986 152.806241,15.0917444 L151.594183,15.0917444 C151.43631,12.9006269 150.224252,10.3356304 145.270092,10.3356304 C140.685152,10.3356304 139.182811,12.045456 139.182811,14.2365734 C139.182811,16.2676045 140.052641,17.2823454 143.63636,18.0042832 L147.509853,18.7788946 C151.277928,19.5271693 153.333333,20.7562193 153.333333,23.8025078 C153.333333,26.3938411 151.647147,29.2 145.770703,29.2 C139.604485,29.2 137.233333,26.5007375 137.233333,22.4665613 L138.445391,22.4665613 Z" id="Fill-15" fill="#5E5E5E"></path>
                    <polygon id="Fill-20" fill="#FEFEFE" points="166.725467 3.49711667 166.774533 3.54465 166.755367 3.48868333"></polygon>
                    <path d="M166.366667,2.12214802 C166.366667,2.12214802 164.967514,0.127532149 161.5259,1.10106486 C159.017055,1.81031723 158.7,1.89991227 158.7,1.89991227 L159.422842,4.08673203 L161.805622,3.4120163 L164.332322,11.5666667 C165.012962,11.4490419 165.659515,11.2443247 166.261162,10.9660295 L163.443919,2.94952569 L166.366667,2.12214802 Z" id="Fill-22" fill="#FEFEFE"></path>
                    <path d="M8.27830882,39.6253889 C8.09773627,41.4873667 6.60652451,43.0002556 4.29132647,43.0002556 C1.67153627,43.0002556 0.000248039216,41.3008111 0.000248039216,38.6358778 C0.000248039216,36.7396556 1.14023627,34.2725222 4.29132647,34.2725222 C6.05339706,34.2725222 7.96181078,35.0989889 8.21034608,37.2865444 L7.37495,37.2865444 C7.12641471,35.7041444 5.74830882,35.0642333 4.29132647,35.0642333 C2.29262647,35.0642333 0.903606863,36.2157667 0.903606863,38.6358778 C0.903606863,40.4866111 1.84020294,42.2085444 4.29132647,42.2085444 C6.21115,42.2085444 7.16014804,41.2077889 7.44192059,39.6253889 L8.27830882,39.6253889 Z" id="Fill-24" fill="#A59797"></path>
                    <path d="M19.5638484,42.2083911 C21.4386309,42.2083911 23.242073,41.1381244 23.242073,38.6362356 C23.242073,36.1343467 21.4386309,35.06408 19.5638484,35.06408 C17.689066,35.06408 15.8856239,36.1343467 15.8856239,38.6362356 C15.8856239,41.1381244 17.689066,42.2083911 19.5638484,42.2083911 M19.5638484,34.27288 C21.9878467,34.27288 24.1972993,35.7039911 24.1972993,38.6362356 C24.1972993,41.56848 21.9878467,43.0001022 19.5638484,43.0001022 C17.1393256,43.0001022 14.9303975,41.56848 14.9303975,38.6362356 C14.9303975,35.7039911 17.1393256,34.27288 19.5638484,34.27288" id="Fill-27" fill="#A59797"></path>
                    <polygon id="Fill-30" fill="#A59797" points="31.4333333 33.8 32.46083 33.8 38.2226213 41.0047801 38.2459505 41.0047801 38.2459505 33.8 39.1 33.8 39.1 42.2333333 38.1069899 42.2333333 32.310712 35.0280345 32.28789 35.0280345 32.28789 42.2333333 31.4333333 42.2333333"></polygon>
                    <polygon id="Fill-32" fill="#A59797" points="49.3861023 34.6031252 46 34.6031252 46 33.8 53.6666667 33.8 53.6666667 34.6031252 50.2810956 34.6031252 50.2810956 42.2333333 49.3861023 42.2333333"></polygon>
                    <path d="M60.6964217,37.7217205 L64.487461,37.7217205 C65.4684708,37.7217205 66.3526565,37.3668512 66.3526565,36.0796719 C66.3526565,34.8391859 65.3955867,34.6031252 64.5720491,34.6031252 L60.6964217,34.6031252 L60.6964217,37.7217205 Z M59.8,33.8 L64.511401,33.8 C65.9770638,33.8 67.3214304,34.3079196 67.3214304,36.0796719 C67.3214304,36.9772214 66.7521893,37.8752897 65.6259431,38.1227643 L65.6259431,38.1466298 C66.8484815,38.3359971 67.10331,39.1033241 67.1639581,40.4854465 C67.1878981,41.0172316 67.2607823,42.0444848 67.4666667,42.2333333 L66.4973608,42.2333333 C66.3398885,42.0558987 66.2797724,41.4302081 66.2675364,40.5087932 C66.2435963,39.0208326 65.6621192,38.5248457 64.1719844,38.5248457 L60.6964217,38.5248457 L60.6964217,42.2333333 L59.8,42.2333333 L59.8,33.8 Z" id="Fill-34" fill="#A59797"></path>
                    <path d="M77.8050588,34.6742028 L75.9785937,38.8672634 L79.6088131,38.8672634 L77.8050588,34.6742028 Z M79.9540195,39.6703886 L75.6333872,39.6703886 L74.5190365,42.2333333 L73.6,42.2333333 L77.3225773,33.8 L78.310756,33.8 L82.0333333,42.2333333 L81.0451546,42.2333333 L79.9540195,39.6703886 Z" id="Fill-36" fill="#A59797"></path>
                    <path d="M96.4223378,39.6253889 C96.2362933,41.4873667 94.7004044,43.0002556 92.3150489,43.0002556 C89.61536,43.0002556 87.8934267,41.3008111 87.8934267,38.6358778 C87.8934267,36.7396556 89.06796,34.2725222 92.3150489,34.2725222 C94.1300044,34.2725222 96.0962489,35.0989889 96.3523156,37.2865444 L95.4916044,37.2865444 C95.2355378,35.7041444 93.8156711,35.0642333 92.3150489,35.0642333 C90.2552711,35.0642333 88.82416,36.2157667 88.82416,38.6358778 C88.82416,40.4866111 89.7896489,42.2085444 92.3150489,42.2085444 C94.2930489,42.2085444 95.2702933,41.2077889 95.5611156,39.6253889 L96.4223378,39.6253889 Z" id="Fill-38" fill="#A59797"></path>
                    <polygon id="Fill-41" fill="#A59797" points="106.119436 34.6031252 102.733333 34.6031252 102.733333 33.8 110.4 33.8 110.4 34.6031252 107.014429 34.6031252 107.014429 42.2333333 106.119436 42.2333333"></polygon>
                    <path d="M121.154289,42.2083911 C122.981,42.2083911 124.7382,41.1381244 124.7382,38.6362356 C124.7382,36.1343467 122.981,35.06408 121.154289,35.06408 C119.327578,35.06408 117.570378,36.1343467 117.570378,38.6362356 C117.570378,41.1381244 119.327578,42.2083911 121.154289,42.2083911 M121.154289,34.27288 C123.516644,34.27288 125.668933,35.7039911 125.668933,38.6362356 C125.668933,41.56848 123.516644,43.0001022 121.154289,43.0001022 C118.792444,43.0001022 116.639644,41.56848 116.639644,38.6362356 C116.639644,35.7039911 118.792444,34.27288 121.154289,34.27288" id="Fill-43" fill="#A59797"></path>
                    <path d="M133.530225,37.7217205 L137.320469,37.7217205 C138.301943,37.7217205 139.185535,37.3668512 139.185535,36.0796719 C139.185535,34.8391859 138.229064,34.6031252 137.405583,34.6031252 L133.530225,34.6031252 L133.530225,37.7217205 Z M132.633333,33.8 L137.344939,33.8 C138.810501,33.8 140.154242,34.3079196 140.154242,36.0796719 C140.154242,36.9772214 139.585572,37.8752897 138.459404,38.1227643 L138.459404,38.1466298 C139.681858,38.3359971 139.936669,39.1033241 139.99678,40.4854465 C140.021251,41.0172316 140.09413,42.0444848 140.3,42.2333333 L139.330761,42.2333333 C139.1733,42.0558987 139.113188,41.4302081 139.100953,40.5087932 C139.077015,39.0208326 138.495578,38.5248457 137.005546,38.5248457 L133.530225,38.5248457 L133.530225,42.2333333 L132.633333,42.2333333 L132.633333,33.8 Z" id="Fill-46" fill="#A59797"></path>
                    <path d="M152.845222,36.8561889 C152.728689,35.4368333 151.577156,35.0642333 150.238556,35.0642333 C148.900467,35.0642333 147.888467,35.5881222 147.888467,36.5301 C147.888467,37.6121222 148.900467,37.8681889 150.924978,38.2060333 C152.437867,38.4621 153.950756,38.8106778 153.950756,40.4048333 C153.950756,42.4416111 152.100533,43.0002556 150.482867,43.0002556 C148.377089,43.0002556 146.8412,42.2780556 146.712911,40.0439889 L147.574133,40.0439889 C147.724911,41.7894333 148.889222,42.2085444 150.482867,42.2085444 C151.727933,42.2085444 153.020022,41.8712111 153.020022,40.5561222 C153.020022,39.2880556 151.507133,39.1367667 149.994244,38.8919444 C148.016244,38.5781222 146.957222,38.0194778 146.957222,36.6813889 C146.957222,34.8659222 148.633156,34.2725222 150.238556,34.2725222 C151.937489,34.2725222 153.647667,34.8776778 153.706444,36.8561889 L152.845222,36.8561889 Z" id="Fill-48" fill="#A59797"></path>
                </g>
                <g id="Group" transform="translate(155.700000, 0.250000)">
                    <path d="M10.2319329,4.2 C10.2319329,4.2 9.95217799,3.76125418 9.31388922,3.39328674 C8.80316181,3.09885723 8.42742536,2.98484922 7.86613072,2.91251893 C7,2.80090645 6.22939757,2.97132653 5.26977672,3.26083531 C4.38894152,3.52657519 2.96551392,3.97230769 2.96551392,3.97230769 L3.65063551,6.21282051 L5.90901432,5.52205128 L8.3037984,13.8769231 C9.00293389,13.7618554 9.51394079,13.533271 10.1319366,13.2610256 L7.46177796,5.04820513 C9.30854792,4.48273504 10.2319329,4.2 10.2319329,4.2 Z" id="Fill-22" fill="#F7F7F7"></path>
                    <path d="M14,7.00153846 C14,3.13435897 10.8657558,0 6.9997436,0 C3.13373137,0 0,3.13435897 0,7.00153846 C0,10.8666667 3.13373137,14 6.9997436,14 C7.4463939,14 7.88124977,13.9569231 8.3037984,13.8769231 L5.90901432,5.52205128 L3.65063551,6.21282051 L2.9655324,3.97230769 C2.9655324,3.97230769 3.26603421,3.88051282 5.64389583,3.15384615 C8.90582763,2.15641026 10.2319329,4.2 10.2319329,4.2 L7.46177796,5.04820513 L10.1319366,13.2610256 C12.4251859,12.1112821 14,9.74051282 14,7.00153846 L14,7.00153846 Z" id="Fill-17" fill="#E20714"></path>
                </g>
            </g>
        </g>
    </g>
</svg>