<svg xmlns="http://www.w3.org/2000/svg" xmlns:xlink="http://www.w3.org/1999/xlink" width="170" height="46" viewBox="0 0 170 46">
    <defs>
        <path id="a" d="M.06.32h14.203v14.202H.061z"/>
    </defs>
    <g fill="none" fill-rule="evenodd">
        <path fill="#5E5E5E" d="M1.533 12.267h1.844l9.273 17.61 9.272-17.61h1.845v19.166h-1.23V13.985h-.053l-9.22 17.448h-1.229l-9.22-17.448h-.052v17.448h-1.23zM26.833 12.267h1.531l14.07 17.449h.052v-17.45H43.7v19.167h-1.53L28.1 13.985h-.052v17.448h-1.215zM65.933 24.531c-.42 3.634-3.592 7.669-9.203 7.669-5.69 0-9.963-3.66-9.963-9.967 0-4.622 3.093-9.966 9.963-9.966 4.51 0 7.945 2.164 8.889 6.412h-1.206c-.892-3.66-4.17-5.343-7.683-5.343-5.349 0-8.757 4.088-8.757 8.897 0 4.783 3.015 8.898 8.757 8.898 4.143 0 7.29-2.458 7.997-6.6h1.206z"/>
        <path fill="#E20F18" d="M70.77 21.997h-4.837v-1.06h4.837V16.1h1.06v4.836h4.837v1.06H71.83v4.837h-1.06z"/>
        <path fill="#5E5E5E" d="M78.646 25.467c.026 3.553 2.16 5.664 7.22 5.664 4.61 0 6.297-2.004 6.297-4.248 0-2.138-1.001-3.1-4.954-3.928l-3.504-.749c-4.11-.882-5.692-2.11-5.692-4.996 0-2.86 2.45-4.943 7.115-4.943 4.743 0 7.746 1.763 7.878 5.825h-1.212c-.158-2.191-1.37-4.756-6.324-4.756-4.585 0-6.087 1.71-6.087 3.9 0 2.032.87 3.046 4.454 3.768l3.873.775c3.768.748 5.823 1.977 5.823 5.024 0 2.59-1.686 5.397-7.562 5.397-6.166 0-8.538-2.7-8.538-6.733h1.213zM105.8 31.131c5.654 0 8.757-4.328 8.757-8.898 0-4.569-3.103-8.897-8.757-8.897s-8.757 4.328-8.757 8.897c0 4.57 3.103 8.898 8.757 8.898m0-18.864c7.626 0 9.967 6.225 9.967 9.966 0 3.741-2.34 9.967-9.967 9.967-7.627 0-9.967-6.226-9.967-9.967 0-3.74 2.34-9.966 9.967-9.966M118.467 12.267h1.53l14.07 17.449h.053v-17.45h1.213v19.167h-1.53l-14.07-17.448h-.052v17.448h-1.214zM138.445 25.467c.027 3.553 2.161 5.664 7.22 5.664 4.612 0 6.298-2.004 6.298-4.248 0-2.138-1.001-3.1-4.954-3.928l-3.504-.749c-4.111-.882-5.692-2.11-5.692-4.996 0-2.86 2.45-4.943 7.115-4.943 4.743 0 7.746 1.763 7.878 5.825h-1.212c-.158-2.191-1.37-4.756-6.324-4.756-4.585 0-6.087 1.71-6.087 3.9 0 2.032.87 3.046 4.453 3.768l3.874.775c3.768.748 5.823 1.977 5.823 5.024 0 2.59-1.686 5.397-7.562 5.397-6.167 0-8.538-2.7-8.538-6.733h1.212z"/>
        <g transform="translate(155.633)">
            <mask id="b" fill="#fff">
                <use xlink:href="#a"/>
            </mask>
            <path fill="#E20714" d="M14.264 7.422a7.102 7.102 0 1 0-5.78 6.975L6.056 5.921l-2.29.701-.696-2.273 2.717-.83c3.31-1.012 4.655 1.061 4.655 1.061l-2.81.86 2.708 8.332a7.1 7.1 0 0 0 3.925-6.35z" mask="url(#b)"/>
        </g>
        <path fill="#FEFEFE" d="M166.725 6.497l.05.048-.02-.056zM166.367 5.122s-1.4-1.994-4.841-1.02L158.7 4.9l.723 2.187 2.383-.675 2.526 8.155a7.723 7.723 0 0 0 1.93-.601l-2.818-8.016 2.923-.828z"/>
        <path fill="#A59797" d="M8.278 42.625C8.098 44.487 6.607 46 4.291 46c-2.62 0-4.29-1.7-4.29-4.364 0-1.896 1.14-4.363 4.29-4.363 1.762 0 3.67.826 3.92 3.014h-.836c-.249-1.583-1.627-2.223-3.084-2.223-1.998 0-3.387 1.152-3.387 3.572 0 1.85.936 3.573 3.387 3.573 1.92 0 2.87-1.001 3.15-2.584h.837zM19.564 45.208c1.875 0 3.678-1.07 3.678-3.572s-1.803-3.572-3.678-3.572-3.678 1.07-3.678 3.572 1.803 3.572 3.678 3.572m0-7.935c2.424 0 4.633 1.431 4.633 4.363 0 2.932-2.21 4.364-4.633 4.364-2.425 0-4.634-1.432-4.634-4.364s2.21-4.363 4.634-4.363M31.433 36.8h1.028l5.762 7.205h.023V36.8h.854v8.433h-.993l-5.796-7.205h-.023v7.205h-.855zM49.386 37.603H46V36.8h7.667v.803H50.28v7.63h-.895zM60.696 40.722h3.791c.981 0 1.866-.355 1.866-1.642 0-1.24-.957-1.477-1.781-1.477h-3.876v3.119zM59.8 36.8h4.711c1.466 0 2.81.508 2.81 2.28 0 .897-.569 1.795-1.695 2.043v.024c1.222.189 1.477.956 1.538 2.338.024.532.097 1.56.303 1.748h-.97c-.157-.177-.217-.803-.23-1.724-.023-1.488-.605-1.984-2.095-1.984h-3.476v3.708H59.8V36.8zM77.805 37.674l-1.826 4.193h3.63l-1.804-4.193zm2.149 4.996h-4.32l-1.115 2.563H73.6l3.723-8.433h.988l3.722 8.433h-.988l-1.091-2.563zM96.422 42.625C96.236 44.487 94.7 46 92.315 46c-2.7 0-4.422-1.7-4.422-4.364 0-1.896 1.175-4.363 4.422-4.363 1.815 0 3.781.826 4.037 3.014h-.86c-.256-1.583-1.676-2.223-3.177-2.223-2.06 0-3.49 1.152-3.49 3.572 0 1.85.965 3.573 3.49 3.573 1.978 0 2.955-1.001 3.246-2.584h.861zM106.12 37.603h-3.387V36.8h7.667v.803h-3.386v7.63h-.895zM121.154 45.208c1.827 0 3.584-1.07 3.584-3.572s-1.757-3.572-3.584-3.572c-1.826 0-3.584 1.07-3.584 3.572s1.758 3.572 3.584 3.572m0-7.935c2.363 0 4.515 1.431 4.515 4.363 0 2.932-2.152 4.364-4.515 4.364-2.362 0-4.514-1.432-4.514-4.364s2.152-4.363 4.514-4.363M133.53 40.722h3.79c.982 0 1.866-.355 1.866-1.642 0-1.24-.957-1.477-1.78-1.477h-3.876v3.119zm-.897-3.922h4.712c1.466 0 2.81.508 2.81 2.28 0 .897-.57 1.795-1.696 2.043v.024c1.223.189 1.478.956 1.538 2.338.024.532.097 1.56.303 1.748h-.97c-.157-.177-.217-.803-.229-1.724-.024-1.488-.605-1.984-2.095-1.984h-3.476v3.708h-.897V36.8zM152.845 39.856c-.116-1.42-1.268-1.792-2.606-1.792-1.339 0-2.35.524-2.35 1.466 0 1.082 1.011 1.338 3.036 1.676 1.513.256 3.026.605 3.026 2.199 0 2.037-1.85 2.595-3.468 2.595-2.106 0-3.642-.722-3.77-2.956h.861c.15 1.745 1.315 2.165 2.909 2.165 1.245 0 2.537-.338 2.537-1.653 0-1.268-1.513-1.42-3.026-1.664-1.978-.314-3.037-.873-3.037-2.21 0-1.816 1.676-2.41 3.282-2.41 1.698 0 3.409.606 3.467 2.584h-.86z"/>
    </g>
</svg>
