<?xml version="1.0" standalone="no"?>
<!DOCTYPE svg PUBLIC "-//W3C//DTD SVG 20010904//EN"
 "http://www.w3.org/TR/2001/REC-SVG-20010904/DTD/svg10.dtd">
<svg version="1.0" xmlns="http://www.w3.org/2000/svg"
 width="700.000000pt" height="700.000000pt" viewBox="0 0 700.000000 700.000000"
 preserveAspectRatio="xMidYMid meet">
<metadata>
Created by potrace 1.11, written by Peter Selinger 2001-2013
</metadata>
<g transform="translate(0.000000,700.000000) scale(0.100000,-0.100000)"
fill="#000000" stroke="none">
<path d="M3340 6993 c-973 -51 -1842 -471 -2476 -1197 -470 -537 -750 -1176
-840 -1911 -23 -191 -23 -579 0 -769 85 -693 328 -1278 749 -1804 522 -651
1285 -1107 2093 -1251 385 -69 788 -74 1175 -15 l107 16 -10 37 c-6 20 -206
718 -445 1551 -238 833 -502 1755 -586 2047 -84 293 -157 533 -163 533 -6 0
-260 -76 -565 -169 -304 -94 -554 -169 -555 -168 -5 5 -344 1120 -342 1122 2
2 212 67 468 145 1040 318 1112 338 1345 375 136 22 472 31 604 16 395 -43
742 -190 1019 -431 88 -77 206 -211 194 -221 -4 -3 -314 -100 -689 -215 -376
-114 -683 -212 -683 -217 0 -5 259 -807 576 -1781 316 -974 615 -1891 662
-2038 48 -147 92 -268 98 -268 13 0 231 124 328 187 590 383 1073 966 1334
1613 177 440 254 837 255 1315 1 551 -107 1030 -344 1523 -454 949 -1328 1650
-2350 1886 -317 73 -662 105 -959 89z"/>
</g>
</svg>
